<svg xmlns="http://www.w3.org/2000/svg" version="1.1" viewBox="0 0 150 125">
<g transform="scale(1.5)">
<path fill="#B89146" d="m79.062 28.43c0-2.9414-2.3945-5.3359-5.3359-5.3359-2.9414 0-5.3359 2.3945-5.3359 5.3359 0 2.9414 2.3945 5.3359 5.3359 5.3359 2.9414 0 5.3359-2.3945 5.3359-5.3359zm-8.7695 0c0-1.8945 1.5391-3.4336 3.4336-3.4336 1.8945 0 3.4336 1.5391 3.4336 3.4336 0 1.8945-1.5391 3.4336-3.4336 3.4336-1.8945 0-3.4336-1.5391-3.4336-3.4336zm19.488 46.574-8.8438-36.207c1.8867-3.8164 3.3594-7.5547 3.3594-10.5 0-5.9102-4.8086-10.723-10.723-10.723-5.9102 0-10.723 4.8086-10.723 10.723 0 3.1406 1.4102 6.707 3.2539 10.355l-2.8203 0.94922-15.504-5.2188c-0.007812-0.003906-0.019531 0-0.027344-0.003906-0.10547-0.03125-0.21484-0.046875-0.32422-0.039062-0.023438 0-0.046876 0.007812-0.066407 0.011718-0.050781 0.007813-0.097656 0.007813-0.14844 0.023438l-16.867 4.9219c-0.26172 0.074219-0.47656 0.25781-0.59375 0.50391l-19.484 40.996c-0.15625 0.32812-0.11328 0.71484 0.11328 1 0.18359 0.23047 0.45703 0.35938 0.74609 0.35938 0.066406 0 0.13281-0.007812 0.19922-0.019531l26.531-5.7109c0.097656-0.019531 0.19141-0.0625 0.27344-0.10938l24.926 6.0898c0.074218 0.019531 0.15234 0.027344 0.22656 0.027344 0.074219 0 0.15234-0.007813 0.22656-0.027344l25.562-6.2461c0.51172-0.125 0.82422-0.64062 0.69922-1.1484zm-16.203-55.523c4.8633 0 8.8164 3.957 8.8164 8.8164 0 4.0977-3.5859 10.637-6.4688 15.895-0.83594 1.5273-1.6406 2.9961-2.3242 4.332-0.82031-1.668-1.8203-3.457-2.8633-5.3242-2.8008-5.0117-5.9766-10.691-5.9766-14.906 0-4.8633 3.957-8.8164 8.8164-8.8164zm-11.234 32.637c-0.73828 0.37109-1.4297 0.84375-2.0547 1.4219-0.38672 0.35547-0.41016 0.96094-0.050781 1.3438 0.1875 0.20313 0.44141 0.30469 0.69922 0.30469 0.23047 0 0.46484-0.082031 0.64453-0.25391 0.24219-0.22266 0.49609-0.42578 0.76172-0.61328v25.941l-23.461-5.7305 9.2852-38.016 14.176 4.7695zm-31.047-11.117 14.875-4.3398-3.3047 13.523c-0.12109-0.32812-0.40625-0.57812-0.77344-0.62109-2.0898-0.24219-3.2891 0.37891-4.3398 1.0352-0.44531 0.27734-0.58203 0.86719-0.30078 1.3125 0.17969 0.28906 0.49219 0.44531 0.80859 0.44531 0.17188 0 0.34766-0.046875 0.50391-0.14453 0.85547-0.53516 1.6289-0.92969 3.1133-0.75781 0.28516 0.03125 0.55078-0.074219 0.74609-0.25391l-5.7383 23.488-24.059 5.1797 18.469-38.863zm32.949 12.406c0.19141-0.058594 0.37891-0.12109 0.57422-0.16016 0.51563-0.10156 0.84766-0.60547 0.74609-1.1211-0.10156-0.51562-0.60547-0.84766-1.1211-0.74609-0.066406 0.011719-0.13281 0.039063-0.19922 0.054688v-10.148l2.7539-0.92578c0.67188 1.2578 1.375 2.5195 2.0742 3.7695 1.4141 2.5273 2.75 4.918 3.625 6.9883 0.14844 0.34766 0.48438 0.57422 0.86328 0.58203h0.011719c0.37109 0 0.71094-0.21875 0.86719-0.55859 0.77734-1.7031 1.9297-3.8086 3.1523-6.0352 0.66797-1.2148 1.3516-2.4648 2.0156-3.7227l8.0977 33.148-23.461 5.7305zm-35.66 4.9883c0.09375 0.51562-0.24609 1.0117-0.76563 1.1094-0.94922 0.17578-1.9648 0.26172-3.0234 0.26172-0.52734 0-0.95312-0.42578-0.95312-0.95312s0.42578-0.95312 0.95312-0.95312c0.94531 0 1.8438-0.078125 2.6797-0.23047 0.51563-0.09375 1.0117 0.24609 1.1094 0.76562zm7.125-4.75c0.375 0.36719 0.38672 0.96875 0.019531 1.3477-0.92969 0.95703-2.2188 2.1758-3.9219 3.1094-0.14453 0.078126-0.30078 0.11719-0.45703 0.11719-0.33594 0-0.66406-0.17969-0.83594-0.49609-0.25391-0.46094-0.082031-1.0391 0.37891-1.293 1.4766-0.80859 2.582-1.8516 3.4727-2.7695 0.36719-0.37891 0.96875-0.38672 1.3477-0.019531zm36.137-0.40234c0.42188 0.3125 0.50781 0.91016 0.19531 1.332-0.1875 0.25-0.47266 0.38281-0.76562 0.38281-0.19922 0-0.39844-0.0625-0.56641-0.1875-0.84375-0.62891-1.7344-1.0859-2.6484-1.3555-0.50391-0.14844-0.78906-0.67969-0.64062-1.1836 0.14844-0.50391 0.67969-0.79297 1.1836-0.64062 1.1289 0.33594 2.2188 0.89062 3.2422 1.6523zm-20.297 3.4609c0.058594-0.52344 0.52734-0.89844 1.0508-0.84375 1.5312 0.16797 1.918 0.13672 3.8828-0.64453 0.48828-0.19141 1.043 0.042968 1.2344 0.53125 0.19531 0.48828-0.042969 1.043-0.53125 1.2344-1.5742 0.625-2.3828 0.85547-3.4375 0.85547-0.39844 0-0.83203-0.03125-1.3555-0.089844-0.52344-0.058594-0.89844-0.52734-0.84375-1.0508zm-2.6055-2.1641c0.48047 0.21094 0.70313 0.76953 0.49609 1.25-0.15625 0.35938-0.50781 0.57422-0.875 0.57422-0.125 0-0.25391-0.023437-0.37891-0.078125-1.0039-0.43359-2.3164-1.4102-2.9922-2.2188-0.33594-0.40234-0.28125-1.0039 0.12109-1.3398 0.40234-0.33594 1.0039-0.28125 1.3398 0.12109 0.48438 0.58203 1.5547 1.3711 2.2891 1.6914z"/>
</g>
 </svg>