<svg xmlns="http://www.w3.org/2000/svg" data-name="Layer 1" viewBox="0 0 64 80" x="0px" y="0px"><title fill="#B89146" >x</title><path fill="#B89146" d="M62.85,26.27v-1a1.48,1.48,0,0,0-.55-1.16L34.47,1.6a3.92,3.92,0,0,0-4.94,0L1.7,24.1a1.48,1.48,0,0,0-.55,1.16v1h0V59.36A3.88,3.88,0,0,0,2,61.75a.67.67,0,0,0,.07.11,2.85,2.85,0,0,0,.23.26h0l0,0a2.35,2.35,0,0,0,.29.26l.21.17,0,0,.09,0a1.83,1.83,0,0,0,.26.16,2.1,2.1,0,0,0,.26.13l.12,0h0a4.06,4.06,0,0,0,.62.19l.22,0,.23,0,.36,0H59a4.48,4.48,0,0,0,.64-.06l.2,0,.14,0L60.4,63l.24-.12a2.8,2.8,0,0,0,.3-.15l.07,0,.24-.17,0,0,.13-.1.16-.15.19-.18c.1-.11.21-.23.33-.38l0-.07.07-.11.08-.12s0-.06,0-.09a3.87,3.87,0,0,0,.52-1.91V26.27ZM31.42,3.94a.92.92,0,0,1,1.16,0l27,21.84L33.43,46.87a1.8,1.8,0,0,1-2.24,0L4.42,25.76ZM4.14,58.22V29.45h0v-.08L22.23,43.63Zm2.24,2.06L24.65,45.54l4.68,3.69a4.77,4.77,0,0,0,6,0l4.62-3.72,18.35,14.8Zm53.48-2.59L42.32,43.55,59.85,29.41v0h0Z"/><path fill="#B89146" d="M44.82,25.5A12.82,12.82,0,1,0,32,38.32,12.83,12.83,0,0,0,44.82,25.5Zm-22.64,0A9.82,9.82,0,1,1,32,35.32,9.82,9.82,0,0,1,22.18,25.5Z"/><path fill="#B89146" d="M30.15,21.61l.1-.08A2.34,2.34,0,0,1,32,21.06a1.15,1.15,0,0,1,1.09.76A1,1,0,0,1,32.64,23a3.5,3.5,0,0,1-.43.33l-.18.13a3.63,3.63,0,0,0-1.45,3.91c.25.91.69,1.11,1,1.11h0c.33,0,.77-.19,1-1.07a3.12,3.12,0,0,1,1-1.64c.22-.18.46-.36.69-.53s.44-.32.65-.49a3.39,3.39,0,0,0,.86-4.49A4.66,4.66,0,0,0,31.64,18h0l-.3,0a7.42,7.42,0,0,0-.79.1,4.55,4.55,0,0,0-2.35,1.19,1.72,1.72,0,0,0-.09,2.36,1.41,1.41,0,0,0,2,0Z"/><path fill="#B89146" d="M33.63,31.26a1.63,1.63,0,0,0-1.76-1.71h0a1.83,1.83,0,0,0-1.3.48,1.72,1.72,0,0,0-.46,1.23,1.81,1.81,0,0,0,.51,1.3,1.73,1.73,0,0,0,1.22.48h0a1.81,1.81,0,0,0,1.3-.51A1.76,1.76,0,0,0,33.63,31.26Z"/></svg>