<svg xmlns="http://www.w3.org/2000/svg" xmlns:xlink="http://www.w3.org/1999/xlink" version="1.1" x="0px" y="0px" viewBox="-3.2 -6.4 70.4 86.4" enable-background="new 0 0 64 64" xml:space="preserve"><g><path fill="#B89146" d="M13.316,42c0,0.552-0.447,1-1,1H8.539c-0.553,0-1-0.448-1-1V31.617c0-0.552,0.447-1,1-1s1,0.448,1,1V41h2.777   C12.869,41,13.316,41.448,13.316,42z M17.979,41H16.09c-0.553,0-1,0.448-1,1s0.447,1,1,1h1.889c0.553,0,1-0.448,1-1   S18.531,41,17.979,41z M61.18,55.032c0,0.552-0.447,1-1,1c-0.005,0-0.013,0.001-0.02,0H30.947c-0.553,0-1-0.448-1-1   c0-2.776,0.996-5.323,2.647-7.306H3.82c-0.553,0-1-0.448-1-1V8.968c0-0.037,0.017-0.067,0.021-0.103   c0.007-0.072,0.02-0.14,0.043-0.21c0.019-0.057,0.043-0.107,0.071-0.159c0.02-0.038,0.026-0.08,0.052-0.116   c0.02-0.027,0.049-0.041,0.07-0.066c0.034-0.039,0.072-0.071,0.112-0.104c0.063-0.054,0.127-0.1,0.201-0.136   c0.036-0.018,0.073-0.029,0.112-0.042c0.089-0.03,0.176-0.049,0.269-0.054c0.018-0.001,0.031-0.01,0.049-0.01h52.855   c0.018,0,0.031,0.009,0.049,0.01c0.098,0.004,0.189,0.024,0.283,0.057c0.032,0.012,0.063,0.021,0.094,0.035   c0.079,0.037,0.148,0.087,0.217,0.145c0.037,0.031,0.072,0.062,0.104,0.098c0.022,0.025,0.053,0.04,0.072,0.067   c0.024,0.034,0.029,0.074,0.049,0.11c0.032,0.057,0.059,0.113,0.079,0.176c0.02,0.06,0.03,0.118,0.037,0.18   c0.006,0.042,0.025,0.079,0.025,0.123v37.867c2.094,2.034,3.417,4.858,3.473,7.988C61.173,54.89,61.18,54.96,61.18,55.032z    M6.95,9.968l23.3,16.644L53.551,9.968H6.95z M4.82,45.726h29.941c1.87-1.334,4.151-2.128,6.619-2.128h8.346   c2.185,0,4.221,0.626,5.959,1.693v-34.39L30.831,28.654c-0.174,0.125-0.377,0.187-0.581,0.187s-0.407-0.062-0.581-0.187   L4.82,10.903V45.726z M59.107,54.032c-0.251-2.375-1.388-4.489-3.072-6.007c-0.023-0.021-0.049-0.036-0.07-0.058   c-1.664-1.472-3.848-2.369-6.238-2.369h-8.346c-4.864,0-8.88,3.701-9.381,8.434H59.107z M36.207,32.077   c0-5.154,4.193-9.347,9.348-9.347c5.153,0,9.346,4.193,9.346,9.347s-4.192,9.347-9.346,9.347   C40.4,41.424,36.207,37.231,36.207,32.077z M38.207,32.077c0,4.051,3.296,7.347,7.348,7.347c4.051,0,7.346-3.296,7.346-7.347   c0-4.051-3.295-7.347-7.346-7.347C41.503,24.73,38.207,28.026,38.207,32.077z"/></g></svg>