
<svg xmlns="http://www.w3.org/2000/svg" version="1.1" viewBox="-30.0 -30.0 120.0 135.0">
  <path fill="#B89146" d="M66 28h8c1.102 0 2-.898 2-2V10c0-1.102-.898-2-2-2H62c-12.129 0-22 9.871-22 22v10.16H26c-1.102 0-2 .898-2 2V58c0 1.102.898 2 2 2h12.609v30c0 1.102.898 2 2 2h16.699c1.102 0 2-.898 2-2V60h10.52a2 2 0 0 0 1.941-1.5l4.172-16a1.98 1.98 0 0 0-.351-1.73 2.004 2.004 0 0 0-1.578-.782h-14v-6c0-3.308 2.691-6 6-6zm-8 16h13.41l-3.129 12h-10.98c-1.102 0-2 .898-2 2v30H42.602V58c0-1.102-.898-2-2-2H27.993V44.16h14c1.102 0 2-.898 2-2V30c0-9.922 8.07-18 18-18h10v12h-6c-5.512 0-10 4.488-10 10v8c0 1.102.899 2 2 2z"/>
  <path fill="#B89146" d="M14.482.171C3.798.171-4.893 8.864-4.893 19.547c0 3.7 1.046 7.288 3.029 10.397l-3.139 8.245a.54.54 0 0 0 .726.686l7.681-3.438a19.22 19.22 0 0 0 11.079 3.485c10.683 0 19.374-8.692 19.374-19.375C33.858 8.863 25.166.172 14.483.172zm0 35.892c-3.491 0-6.832-1.08-9.66-3.124a2.308 2.308 0 0 0-2.304-.237l-2.86 1.281 1.247-3.278a2.316 2.316 0 0 0-.229-2.098 16.442 16.442 0 0 1-2.709-9.06c0-4.405 1.72-8.55 4.843-11.674A16.403 16.403 0 0 1 14.483 3.03C23.59 3.03 31 10.44 31 19.546s-7.41 16.517-16.518 16.517z"/>
  <path fill="#B89146" d="M4.039 14.163h2.219v4.448l4.17-4.448h2.915l-4.43 4.441 4.657 6.356h-2.9l-3.327-4.713-1.086 1.102v3.611H4.038V14.163zM23.148 24c-.815.84-1.995 1.26-3.538 1.26s-2.721-.42-3.537-1.26c-1.094-1.03-1.641-2.514-1.641-4.454 0-1.977.547-3.461 1.64-4.452.817-.84 1.995-1.26 3.538-1.26s2.723.42 3.538 1.26c1.089.99 1.633 2.475 1.633 4.453 0 1.938-.544 3.422-1.633 4.453zm-1.41-1.64c.524-.66.787-1.597.787-2.813 0-1.211-.263-2.147-.787-2.808-.525-.662-1.234-.993-2.128-.993s-1.607.33-2.139.989-.798 1.597-.798 2.813c0 1.216.266 2.153.798 2.812s1.245.989 2.139.989 1.602-.33 2.128-.99z"/>
</svg>