<svg xmlns="http://www.w3.org/2000/svg" version="1.1" viewBox="-30.0 -30.0 120.0 135.0">
  <path fill="#B89146" d="M66 28h8c1.102 0 2-.898 2-2V10c0-1.102-.898-2-2-2H62c-12.129 0-22 9.871-22 22v10.16H26c-1.102 0-2 .898-2 2V58c0 1.102.898 2 2 2h12.609v30c0 1.102.898 2 2 2h16.699c1.102 0 2-.898 2-2V60h10.52a2 2 0 0 0 1.941-1.5l4.172-16a1.98 1.98 0 0 0-.351-1.73 2.004 2.004 0 0 0-1.578-.782h-14v-6c0-3.308 2.691-6 6-6zm-8 16h13.41l-3.129 12h-10.98c-1.102 0-2 .898-2 2v30H42.602V58c0-1.102-.898-2-2-2H27.993V44.16h14c1.102 0 2-.898 2-2V30c0-9.922 8.07-18 18-18h10v12h-6c-5.512 0-10 4.488-10 10v8c0 1.102.899 2 2 2z"/>
  <path fill="#B89146" d="M15.642-1.155C4.958-1.155-3.733 7.537-3.733 18.22c0 3.7 1.046 7.289 3.029 10.397l-3.139 8.245a.54.54 0 0 0 .726.687l7.68-3.438a19.22 19.22 0 0 0 11.079 3.485c10.684 0 19.376-8.692 19.376-19.375C35.017 7.537 26.325-1.155 15.64-1.155zm0 35.892a16.39 16.39 0 0 1-9.66-3.124 2.308 2.308 0 0 0-2.304-.237l-2.86 1.28 1.247-3.277a2.316 2.316 0 0 0-.23-2.098 16.442 16.442 0 0 1-2.708-9.06A16.4 16.4 0 0 1 3.97 6.548a16.403 16.403 0 0 1 11.673-4.844c9.107 0 16.516 7.41 16.516 16.517-.001 9.107-7.41 16.516-16.517 16.516z"/>
  <path fill="#B89146" d="M14.16 14.734H8.447v2.293h5.244v1.875H8.445v2.776h5.977v1.94h-8.18V12.823h7.918v1.911zm1.985-1.911h2.364l4.286 7.527v-7.527h2.102v10.795h-2.255l-4.396-7.66v7.66h-2.101V12.823z"/>
</svg>