<svg xmlns="http://www.w3.org/2000/svg" xmlns:xlink="http://www.w3.org/1999/xlink" version="1.1" x="0px" y="0px" viewBox="0 0 100 125" style="enable-background:new 0 0 100 100;" xml:space="preserve"><path fill="#B89146" d="M50,55.8c11.2,0,20.3-9.1,20.3-20.3c0-11.2-9.1-20.3-20.3-20.3s-20.3,9.1-20.3,20.3C29.7,46.7,38.8,55.8,50,55.8z M50,18.3  c9.5,0,17.2,7.7,17.2,17.2c0,9.5-7.7,17.2-17.2,17.2S32.8,45,32.8,35.5C32.8,26,40.5,18.3,50,18.3z"/><path fill="#B89146" d="M48.7,89.7c0.3,0.4,0.8,0.7,1.3,0.7s1-0.3,1.3-0.7l0.7-1.1c19.9-31.2,22.4-35.2,22.8-35.7c3.6-5.1,5.5-11.1,5.5-17.4  C80.3,18.7,66.7,5,50,5C33.3,5,19.7,18.7,19.7,35.5c0,6.4,2,12.6,5.8,17.9L48.7,89.7z M50,8.1c15,0,27.2,12.3,27.2,27.4  c0,5.6-1.7,11-4.9,15.6C72,51.4,72,51.4,50,86L28.3,51.9c0-0.1-0.2-0.4-0.3-0.4c-3.4-4.6-5.2-10.1-5.2-15.9C22.8,20.4,35,8.1,50,8.1  z"/><path fill="#B89146" d="M71.7,81.7c-0.9,0-1.6,0.6-1.7,1.4c-0.1,0.9,0.6,1.6,1.4,1.7c11.4,0.9,16.4,2.3,18,3.2c-3.1,1.7-17.6,4-39.4,4  s-36.3-2.2-39.4-4c1.6-0.8,6.6-2.2,18-3.2c0.9-0.1,1.5-0.8,1.4-1.7c-0.1-0.9-0.8-1.5-1.7-1.4C7.1,83.4,7.1,86.6,7.1,87.9  C7.1,94.7,42.8,95,50,95s42.9-0.3,42.9-7.1C92.9,86.6,92.9,83.4,71.7,81.7z"/></svg>