<svg xmlns="http://www.w3.org/2000/svg" xmlns:xlink="http://www.w3.org/1999/xlink" version="1.1" x="0px" y="0px" viewBox="0 0 32 40" enable-background="new 0 0 32 32" xml:space="preserve"><g><path fill="#B89146" d="M21.439,20.724c-0.59-1.025-1.777-1.198-3.069-0.453l-1.377,0.795c-1.05,0.602-3.227-2.076-4.294-3.924   c-1.118-1.937-2.289-5.081-1.251-5.68l1.376-0.795c0.557-0.32,0.971-0.715,1.198-1.138c0.3-0.56,0.282-1.165-0.056-1.747   l-2.275-3.941c-0.344-0.599-0.929-0.928-1.645-0.928c-0.476,0-1.009,0.15-1.462,0.412c-0.039,0.023-0.101,0.052-0.179,0.09   C7.672,3.772,5.438,4.86,4.58,7.663c-0.951,3.109,0.068,7.287,3.029,12.418c3.45,5.975,7.068,9.006,10.752,9.006   c0.001,0,0.001,0,0.002,0c2.058,0,3.525-0.992,4.077-1.365c0.073-0.049,0.128-0.087,0.169-0.109   c1.045-0.605,1.76-1.813,1.105-2.948L21.439,20.724z M22.198,26.901c-0.051,0.029-0.124,0.078-0.217,0.142   c-0.542,0.366-1.812,1.224-3.618,1.224c-0.001,0-0.001,0-0.001,0c-3.323,0-6.796-2.973-10.042-8.596   c-2.844-4.926-3.838-8.885-2.955-11.768c0.753-2.462,2.676-3.398,3.4-3.75c0.101-0.051,0.179-0.088,0.229-0.118   c0.333-0.192,0.716-0.302,1.052-0.302c0.428,0,0.734,0.169,0.935,0.518l2.276,3.941c0.195,0.338,0.209,0.64,0.042,0.949   c-0.155,0.289-0.461,0.57-0.886,0.815l-1.375,0.794c-2.207,1.273,0.82,6.576,0.949,6.801c0.105,0.182,2.58,4.422,4.668,4.422   c0.268,0,0.52-0.066,0.748-0.197l1.376-0.795c0.878-0.507,1.573-0.5,1.948,0.152l2.275,3.94   C23.47,25.882,22.68,26.622,22.198,26.901z"/><path fill="#B89146" d="M17.504,8.938c1.717,0.459,3.152,1.56,4.039,3.098c0.888,1.537,1.123,3.329,0.663,5.045   c-0.06,0.219,0.071,0.443,0.29,0.504c0.035,0.008,0.07,0.014,0.105,0.014c0.182,0,0.348-0.121,0.396-0.305   c0.518-1.928,0.252-3.941-0.744-5.668c-0.998-1.728-2.609-2.963-4.537-3.48c-0.217-0.054-0.443,0.072-0.502,0.29   C17.156,8.655,17.285,8.879,17.504,8.938z"/><path fill="#B89146" d="M26.192,9.352c-1.563-2.706-4.089-4.644-7.111-5.453c-0.218-0.054-0.442,0.071-0.502,0.29   c-0.059,0.219,0.071,0.443,0.29,0.502c2.811,0.754,5.16,2.555,6.613,5.071s1.838,5.45,1.084,8.261   c-0.059,0.219,0.071,0.444,0.291,0.504c0.035,0.008,0.07,0.014,0.105,0.014c0.182,0,0.347-0.121,0.396-0.304   C28.17,15.214,27.756,12.058,26.192,9.352z"/></g></svg>