<?xml version="1.0" encoding="UTF-8"?>
<svg id="Layer_1" data-name="Layer 1" xmlns="http://www.w3.org/2000/svg" viewBox="0 0 200 200">
  <defs>
    <style>
      .cls-1 {
        fill: #B89146;
        stroke-width: 0px;
      }
    </style>
  </defs>
  <path class="cls-1" d="M114.95,33.292h-45.13c-3.09,0-5.59,2.19-5.59,4.9v25.78c0,1.35.63,2.57,1.64,3.46,1.01.88,2.41,1.43,3.95,1.43v9.09c0,.66.95.96,1.43.45l8.89-9.54h34.81c3.08,0,5.59-2.19,5.59-4.89v-25.78c0-2.71-2.51-4.9-5.59-4.9ZM114.9,58.512h-45.04c-.42,0-.76-.34-.76-.76s.34-.76.76-.76h45.04c.42,0,.76.34.76.76s-.34.76-.76.76ZM114.9,50.952h-45.04c-.42,0-.76-.34-.76-.76s.34-.76.76-.76h45.04c.42,0,.76.34.76.76s-.34.76-.76.76ZM114.9,43.402h-45.04c-.42,0-.76-.34-.76-.76,0-.43.34-.77.76-.77h45.04c.42,0,.76.34.76.77,0,.42-.34.76-.76.76Z"/>
  <path class="cls-1" d="M49.333,127.265c4.215,7.307,8.372,14.519,12.537,21.727,1.985,3.435,3.549,3.431,5.537-.016,4.16-7.209,8.311-14.423,12.554-21.787,8,2.498,14.079,7.255,18.483,14.211,3.535,5.583,4.982,11.749,5.005,18.292.021,5.857.024,11.715,0,17.572-.022,5.115-2.049,7.106-7.168,7.107-21.263.002-42.526.004-63.789-.002-4.28-.001-6.591-2-6.613-6.162-.041-7.699-.133-15.414.291-23.095.687-12.426,10.816-24.47,23.163-27.847Z"/>
  <path class="cls-1" d="M111.157,173.209c0-4.024-.081-7.941.015-11.853.316-12.872-3.842-23.891-13.358-32.741-.225-.209-.379-.495-.622-.82,3.987-5.199,9.036-8.827,15.112-11.106,1.314-.493,1.835.058,2.426,1.095,3.81,6.679,7.671,13.328,11.518,19.986,2.272,3.932,3.55,3.908,5.868-.106,3.724-6.45,7.531-12.855,11.118-19.381,1.033-1.878,2.045-2.011,3.786-1.234,13.302,5.932,20.357,16.16,20.922,30.693.249,6.407.098,12.833.029,19.249-.044,4.135-2.175,6.412-6.159,6.425-16.523.053-33.047.016-49.571.005-.231,0-.461-.086-1.085-.21Z"/>
  <path class="cls-1" d="M64.046,81.992c11.945-.494,22.066,9.134,22.562,21.464.468,11.611-9.198,21.852-21.17,22.428-11.991.577-22.314-9.163-22.803-21.517-.466-11.762,9.207-21.871,21.411-22.375Z"/>
  <path class="cls-1" d="M129.211,71.076c12.066.023,21.874,9.776,21.942,21.821.068,12.014-9.953,22.006-22.058,21.995-11.97-.011-21.868-9.875-21.944-21.868-.076-12.034,9.911-21.971,22.06-21.948Z"/>
  <path class="cls-1" d="M76.992,31.597s27.22-.002,40.137.002c2.794,0,4.609,1.065,5.227,3.096.153.502.156,1.048.157,1.574.01,5.959.019,11.918-.011,17.877-.003.66.232,1.089.814,1.501,1.411.998,2.783,2.036,4.312,3.174.273.203.666.008.666-.332,0-.626,0-1.18,0-1.735,0-1.123-.005-2.246.001-3.369.008-1.454.647-2.007,2.36-2.054,2.583-.071,4.497-1.366,5.085-3.467.1-.358.12-.74.12-1.111.006-9.017.008-18.033.003-27.05-.002-2.605-2.026-4.459-5.054-4.654-.215-.014-.431-.012-.647-.012-15.831,0-31.662-.003-47.493.002-3.023.001-5.077,1.367-5.65,3.722-.138.568-.028,12.836-.028,12.836Z"/>
</svg>