<?xml version="1.0" encoding="UTF-8"?>
<svg id="Layer_1" data-name="Layer 1" xmlns="http://www.w3.org/2000/svg" viewBox="0 0 200 200">
  <defs>
    <style>
      .cls-1 {
        fill: #000;
      }

      .cls-1, .cls-2, .cls-3 {
        stroke-width: 0px;
      }

      .cls-4, .cls-5, .cls-6 {
        stroke: #231f20;
        stroke-miterlimit: 10;
      }

      .cls-4, .cls-6 {
        fill: #fdfefe;
        stroke-width: .5px;
      }

      .cls-2 {
        fill: #104d9b;
      }

      .cls-5 {
        fill: none;
        stroke-width: 3px;
      }

      .cls-5, .cls-6 {
        stroke-linecap: round;
      }

      .cls-3 {
        fill: #cf2a3a;
      }
    </style>
  </defs>
  <g>
    <path class="cls-4" d="M76.623,161.297c-18.913-9.214-30.713,10.669-48.089,0v-31.763c15.275,9.78,31.521-9.86,48.089,0v31.763Z"/>
    <path class="cls-1" d="M65.885,138.364c-1.492-2.107-2.964-4.187-4.464-6.305.358-.294.721-.592,1.145-.941,1.487,2.168,2.954,4.307,4.461,6.504-.408.265-.771.501-1.143.742Z"/>
    <path class="cls-1" d="M39.849,135.348c.37.214.725.418,1.145.661-1.479,2.254-2.944,4.487-4.452,6.786-.416-.324-.782-.609-1.146-.893,1.488-2.19,2.955-4.348,4.453-6.553Z"/>
    <path class="cls-1" d="M44.267,157.642c-.354.306-.722.624-1.15.994-1.491-2.08-2.961-4.131-4.459-6.221.417-.298.771-.551,1.148-.821,1.494,2.026,2.965,4.02,4.461,6.047Z"/>
    <path class="cls-1" d="M43.167,137.142c.374.177.728.344,1.144.541-1.491,2.451-2.966,4.874-4.457,7.325-.414-.258-.773-.481-1.145-.713,1.483-2.381,2.953-4.739,4.457-7.153Z"/>
    <path class="cls-1" d="M40.937,160.402c-.356.269-.708.534-1.15.867-1.483-2.267-2.95-4.509-4.457-6.812.417-.239.777-.445,1.147-.657,1.49,2.205,2.957,4.378,4.459,6.602Z"/>
    <path class="cls-1" d="M38.193,143.962c-.415-.29-.774-.542-1.141-.798,1.487-2.293,2.957-4.561,4.456-6.873.35.182.708.367,1.146.595-1.496,2.374-2.97,4.711-4.461,7.076Z"/>
    <path class="cls-1" d="M62.939,135.287c-.4.321-.755.606-1.141.917-.696-.913-1.365-1.791-2.063-2.707.371-.322.733-.637,1.146-.996.696.942,1.368,1.851,2.058,2.786Z"/>
    <path class="cls-1" d="M64.933,151.039c-.407-.249-.756-.463-1.141-.699.686-1.056,1.357-2.09,2.054-3.165.393.271.762.525,1.149.792-.698,1.04-1.367,2.037-2.062,3.071Z"/>
    <path class="cls-1" d="M63.054,130.739c.387-.288.752-.559,1.158-.862.686,1.012,1.349,1.99,2.05,3.024-.374.256-.721.493-1.139.779-.688-.978-1.372-1.95-2.069-2.941Z"/>
    <path class="cls-1" d="M37.018,153.484c.389-.25.744-.479,1.141-.735.688.999,1.364,1.98,2.064,2.996-.378.277-.731.536-1.142.838-.691-1.038-1.367-2.053-2.063-3.099Z"/>
    <path class="cls-1" d="M65.106,151.894c.393.258.746.49,1.148.755-.687,1.049-1.356,2.072-2.05,3.132-.387-.22-.753-.428-1.156-.657.689-1.081,1.365-2.141,2.058-3.23Z"/>
    <path class="cls-1" d="M42.625,159.044c-.393.321-.745.609-1.147.937-.692-.972-1.365-1.918-2.06-2.895.387-.288.749-.558,1.149-.856.684.936,1.353,1.85,2.058,2.814Z"/>
    <path class="cls-1" d="M67.504,148.343c.403.312.752.581,1.15.89-.683.968-1.355,1.919-2.054,2.91-.373-.25-.734-.493-1.147-.77.684-1.011,1.347-1.99,2.051-3.029Z"/>
    <path class="cls-1" d="M63.446,150.887c.403.241.766.457,1.15.686-.694,1.098-1.367,2.163-2.061,3.261-.386-.201-.743-.387-1.145-.597.696-1.134,1.37-2.233,2.055-3.35Z"/>
    <path class="cls-1" d="M64.197,139.544c-.693-.968-1.356-1.893-2.059-2.876.38-.298.745-.584,1.147-.899.695.999,1.363,1.958,2.055,2.951-.381.275-.736.531-1.142.824Z"/>
    <path class="cls-1" d="M63.274,150.044c-.384-.209-.74-.402-1.144-.622.696-1.119,1.367-2.198,2.055-3.305.399.248.757.471,1.148.714-.69,1.077-1.368,2.134-2.059,3.212Z"/>
    <path class="cls-1" d="M65.468,134.19c.386-.257.736-.491,1.139-.759.682,1.079,1.353,2.14,2.055,3.25-.388.222-.748.428-1.144.654-.693-1.063-1.361-2.089-2.05-3.145Z"/>
    <path class="cls-1" d="M60.876,153.985c-.411-.197-.764-.365-1.143-.547.69-1.157,1.361-2.282,2.058-3.45.379.202.734.392,1.14.609-.69,1.138-1.359,2.241-2.054,3.388Z"/>
    <g>
      <path class="cls-2" d="M58.585,143.558c-.917-.459-1.835-.459-2.752,0-2.523,1.147-3.669,4.357-6.192,5.733-1.605.688-3.211.229-4.128-1.147-.414-.828-.412-1.657-.346-2.485-.358,1.11-.511,2.311-.416,3.62.223,3.074,2.606,5.327,5.683,5.334.347-.028.699-.027,1.04-.089,3.239-.583,5.633-2.428,7.437-5.09.591-.873,1.04-1.786,1.33-2.745-.087-1.19-.61-2.347-1.656-3.132Z"/>
      <path class="cls-3" d="M60.562,143.141c-.365-3.355-3.351-5.64-6.669-5.078-2.119.359-3.931,1.32-5.478,2.766-1.515,1.417-2.659,3.001-3.248,4.83-.067.828-.069,1.657.346,2.485.917,1.376,2.523,1.835,4.128,1.147,2.523-1.376,3.669-4.587,6.192-5.733.917-.459,1.835-.459,2.752,0,1.046.784,1.568,1.942,1.656,3.132.337-1.118.457-2.297.321-3.548Z"/>
    </g>
  </g>
  <g>
    <path class="cls-4" d="M157.609,179.147c-18.913-9.214-30.713,10.669-48.089,0v-31.763c15.275,9.78,31.521-9.86,48.089,0v31.763Z"/>
    <path class="cls-1" d="M146.871,156.214c-1.492-2.107-2.964-4.187-4.464-6.305.358-.294.721-.592,1.145-.941,1.487,2.168,2.954,4.307,4.461,6.504-.408.265-.771.501-1.143.742Z"/>
    <path class="cls-1" d="M120.835,153.198c.37.214.725.418,1.145.661-1.479,2.254-2.944,4.487-4.452,6.786-.416-.324-.782-.609-1.146-.893,1.488-2.19,2.955-4.348,4.453-6.553Z"/>
    <path class="cls-1" d="M125.253,175.492c-.354.306-.722.624-1.15.994-1.491-2.08-2.961-4.131-4.459-6.221.417-.298.771-.551,1.148-.821,1.494,2.026,2.965,4.02,4.461,6.047Z"/>
    <path class="cls-1" d="M124.153,154.992c.374.177.728.344,1.144.541-1.491,2.451-2.966,4.874-4.457,7.325-.414-.258-.773-.481-1.145-.713,1.483-2.381,2.953-4.739,4.457-7.153Z"/>
    <path class="cls-1" d="M121.923,178.252c-.356.269-.708.534-1.15.867-1.483-2.267-2.95-4.509-4.457-6.812.417-.239.777-.445,1.147-.657,1.49,2.205,2.957,4.378,4.459,6.602Z"/>
    <path class="cls-1" d="M119.179,161.812c-.415-.29-.774-.542-1.141-.798,1.487-2.293,2.957-4.561,4.456-6.873.35.182.708.367,1.146.595-1.496,2.374-2.97,4.711-4.461,7.076Z"/>
    <path class="cls-1" d="M143.925,153.137c-.4.321-.755.606-1.141.917-.696-.913-1.365-1.791-2.063-2.707.371-.322.733-.637,1.146-.996.696.942,1.368,1.851,2.058,2.786Z"/>
    <path class="cls-1" d="M145.919,168.889c-.407-.249-.756-.463-1.141-.699.686-1.056,1.357-2.09,2.054-3.165.393.271.762.525,1.149.792-.698,1.04-1.367,2.037-2.062,3.071Z"/>
    <path class="cls-1" d="M144.04,148.589c.387-.288.752-.559,1.158-.862.686,1.012,1.349,1.99,2.05,3.024-.374.256-.721.493-1.139.779-.688-.978-1.372-1.95-2.069-2.941Z"/>
    <path class="cls-1" d="M118.004,171.333c.389-.25.744-.479,1.141-.735.688.999,1.364,1.98,2.064,2.996-.378.277-.731.536-1.142.838-.691-1.038-1.367-2.053-2.063-3.099Z"/>
    <path class="cls-1" d="M146.092,169.744c.393.258.746.49,1.148.755-.687,1.049-1.356,2.072-2.05,3.132-.387-.22-.753-.428-1.156-.657.689-1.081,1.365-2.141,2.058-3.23Z"/>
    <path class="cls-1" d="M123.611,176.894c-.393.321-.745.609-1.147.937-.692-.972-1.365-1.918-2.06-2.895.387-.288.749-.558,1.149-.856.684.936,1.353,1.85,2.058,2.814Z"/>
    <path class="cls-1" d="M148.489,166.193c.403.312.752.581,1.15.89-.683.968-1.355,1.919-2.054,2.91-.373-.25-.734-.493-1.147-.77.684-1.011,1.347-1.99,2.051-3.029Z"/>
    <path class="cls-1" d="M144.432,168.737c.403.241.766.457,1.15.686-.694,1.098-1.367,2.163-2.061,3.261-.386-.201-.743-.387-1.145-.597.696-1.134,1.37-2.233,2.055-3.35Z"/>
    <path class="cls-1" d="M145.183,157.394c-.693-.968-1.356-1.893-2.059-2.876.38-.298.745-.584,1.147-.899.695.999,1.363,1.958,2.055,2.951-.381.275-.736.531-1.142.824Z"/>
    <path class="cls-1" d="M144.26,167.894c-.384-.209-.74-.402-1.144-.622.696-1.119,1.367-2.198,2.055-3.305.399.248.757.471,1.148.714-.69,1.077-1.368,2.134-2.059,3.212Z"/>
    <path class="cls-1" d="M146.454,152.04c.386-.257.736-.491,1.139-.759.682,1.079,1.353,2.14,2.055,3.25-.388.222-.748.428-1.144.654-.693-1.063-1.361-2.089-2.05-3.145Z"/>
    <path class="cls-1" d="M141.862,171.835c-.411-.197-.764-.365-1.143-.547.69-1.157,1.361-2.282,2.058-3.45.379.202.734.392,1.14.609-.69,1.138-1.359,2.241-2.054,3.388Z"/>
    <g>
      <path class="cls-2" d="M139.571,161.408c-.917-.459-1.835-.459-2.752,0-2.523,1.147-3.669,4.357-6.192,5.733-1.605.688-3.211.229-4.128-1.147-.414-.828-.412-1.657-.346-2.485-.358,1.11-.511,2.311-.416,3.62.223,3.074,2.606,5.327,5.683,5.334.347-.028.699-.027,1.04-.089,3.239-.583,5.633-2.428,7.437-5.09.591-.873,1.04-1.786,1.33-2.745-.087-1.19-.61-2.347-1.656-3.132Z"/>
      <path class="cls-3" d="M141.548,160.991c-.365-3.355-3.351-5.64-6.669-5.078-2.119.359-3.931,1.32-5.478,2.766-1.515,1.417-2.659,3.001-3.248,4.83-.067.828-.069,1.657.346,2.485.917,1.376,2.523,1.835,4.128,1.147,2.523-1.376,3.669-4.587,6.192-5.733.917-.459,1.835-.459,2.752,0,1.046.784,1.568,1.942,1.656,3.132.337-1.118.457-2.297.321-3.548Z"/>
    </g>
  </g>
  <g>
    <path class="cls-4" d="M186.698,110.722c-18.913-9.214-30.713,10.669-48.089,0v-31.763c15.275,9.78,31.521-9.86,48.089,0v31.763Z"/>
    <path class="cls-1" d="M175.959,87.789c-1.492-2.107-2.964-4.187-4.464-6.305.358-.294.721-.592,1.145-.941,1.487,2.168,2.954,4.307,4.461,6.504-.408.265-.771.501-1.143.742Z"/>
    <path class="cls-1" d="M149.924,84.773c.37.214.725.418,1.145.661-1.479,2.254-2.944,4.487-4.452,6.786-.416-.324-.782-.609-1.146-.893,1.488-2.19,2.955-4.348,4.453-6.553Z"/>
    <path class="cls-1" d="M154.342,107.068c-.354.306-.722.624-1.15.994-1.491-2.08-2.961-4.131-4.459-6.221.417-.298.771-.551,1.148-.821,1.494,2.026,2.965,4.02,4.461,6.047Z"/>
    <path class="cls-1" d="M153.242,86.568c.374.177.728.344,1.144.541-1.491,2.451-2.966,4.874-4.457,7.325-.414-.258-.773-.481-1.145-.713,1.483-2.381,2.953-4.739,4.457-7.153Z"/>
    <path class="cls-1" d="M151.012,109.827c-.356.269-.708.534-1.15.867-1.483-2.267-2.95-4.509-4.457-6.812.417-.239.777-.445,1.147-.657,1.49,2.205,2.957,4.378,4.459,6.602Z"/>
    <path class="cls-1" d="M148.268,93.387c-.415-.29-.774-.542-1.141-.798,1.487-2.293,2.957-4.561,4.456-6.873.35.182.708.367,1.146.595-1.496,2.374-2.97,4.711-4.461,7.076Z"/>
    <path class="cls-1" d="M173.014,84.712c-.4.321-.755.606-1.141.917-.696-.913-1.365-1.791-2.063-2.707.371-.322.733-.637,1.146-.996.696.942,1.368,1.851,2.058,2.786Z"/>
    <path class="cls-1" d="M175.008,100.464c-.407-.249-.756-.463-1.141-.699.686-1.056,1.357-2.09,2.054-3.165.393.271.762.525,1.149.792-.698,1.04-1.367,2.037-2.062,3.071Z"/>
    <path class="cls-1" d="M173.129,80.164c.387-.288.752-.559,1.158-.862.686,1.012,1.349,1.99,2.05,3.024-.374.256-.721.493-1.139.779-.688-.978-1.372-1.95-2.069-2.941Z"/>
    <path class="cls-1" d="M147.093,102.909c.389-.25.744-.479,1.141-.735.688.999,1.364,1.98,2.064,2.996-.378.277-.731.536-1.142.838-.691-1.038-1.367-2.053-2.063-3.099Z"/>
    <path class="cls-1" d="M175.181,101.319c.393.258.746.49,1.148.755-.687,1.049-1.356,2.072-2.05,3.132-.387-.22-.753-.428-1.156-.657.689-1.081,1.365-2.141,2.058-3.23Z"/>
    <path class="cls-1" d="M152.7,108.469c-.393.321-.745.609-1.147.937-.692-.972-1.365-1.918-2.06-2.895.387-.288.749-.558,1.149-.856.684.936,1.353,1.85,2.058,2.814Z"/>
    <path class="cls-1" d="M177.578,97.768c.403.312.752.581,1.15.89-.683.968-1.355,1.919-2.054,2.91-.373-.25-.734-.493-1.147-.77.684-1.011,1.347-1.99,2.051-3.029Z"/>
    <path class="cls-1" d="M173.521,100.312c.403.241.766.457,1.15.686-.694,1.098-1.367,2.163-2.061,3.261-.386-.201-.743-.387-1.145-.597.696-1.134,1.37-2.233,2.055-3.35Z"/>
    <path class="cls-1" d="M174.272,88.969c-.693-.968-1.356-1.893-2.059-2.876.38-.298.745-.584,1.147-.899.695.999,1.363,1.958,2.055,2.951-.381.275-.736.531-1.142.824Z"/>
    <path class="cls-1" d="M173.349,99.469c-.384-.209-.74-.402-1.144-.622.696-1.119,1.367-2.198,2.055-3.305.399.248.757.471,1.148.714-.69,1.077-1.368,2.134-2.059,3.212Z"/>
    <path class="cls-1" d="M175.542,83.616c.386-.257.736-.491,1.139-.759.682,1.079,1.353,2.14,2.055,3.25-.388.222-.748.428-1.144.654-.693-1.063-1.361-2.089-2.05-3.145Z"/>
    <path class="cls-1" d="M170.951,103.41c-.411-.197-.764-.365-1.143-.547.69-1.157,1.361-2.282,2.058-3.45.379.202.734.392,1.14.609-.69,1.138-1.359,2.241-2.054,3.388Z"/>
    <g>
      <path class="cls-2" d="M168.66,92.983c-.917-.459-1.835-.459-2.752,0-2.523,1.147-3.669,4.357-6.192,5.733-1.605.688-3.211.229-4.128-1.147-.414-.828-.412-1.657-.346-2.485-.358,1.11-.511,2.311-.416,3.62.223,3.074,2.606,5.327,5.683,5.334.347-.028.699-.027,1.04-.089,3.239-.583,5.633-2.428,7.437-5.09.591-.873,1.04-1.786,1.33-2.745-.087-1.19-.61-2.347-1.656-3.132Z"/>
      <path class="cls-3" d="M170.637,92.567c-.365-3.355-3.351-5.64-6.669-5.078-2.119.359-3.931,1.32-5.478,2.766-1.515,1.417-2.659,3.001-3.248,4.83-.067.828-.069,1.657.346,2.485.917,1.376,2.523,1.835,4.128,1.147,2.523-1.376,3.669-4.587,6.192-5.733.917-.459,1.835-.459,2.752,0,1.046.784,1.568,1.942,1.656,3.132.337-1.118.457-2.297.321-3.548Z"/>
    </g>
  </g>
  <g>
    <path class="cls-4" d="M62.024,91.641c-18.913-9.214-30.713,10.669-48.089,0v-31.763c15.275,9.78,31.521-9.86,48.089,0v31.763Z"/>
    <path class="cls-1" d="M51.286,68.708c-1.492-2.107-2.964-4.187-4.464-6.305.358-.294.721-.592,1.145-.941,1.487,2.168,2.954,4.307,4.461,6.504-.408.265-.771.501-1.143.742Z"/>
    <path class="cls-1" d="M25.25,65.692c.37.214.725.418,1.145.661-1.479,2.254-2.944,4.487-4.452,6.786-.416-.324-.782-.609-1.146-.893,1.488-2.19,2.955-4.348,4.453-6.553Z"/>
    <path class="cls-1" d="M29.668,87.986c-.354.306-.722.624-1.15.994-1.491-2.08-2.961-4.131-4.459-6.221.417-.298.771-.551,1.148-.821,1.494,2.026,2.965,4.02,4.461,6.047Z"/>
    <path class="cls-1" d="M28.568,67.486c.374.177.728.344,1.144.541-1.491,2.451-2.966,4.874-4.457,7.325-.414-.258-.773-.481-1.145-.713,1.483-2.381,2.953-4.739,4.457-7.153Z"/>
    <path class="cls-1" d="M26.339,90.746c-.356.269-.708.534-1.15.867-1.483-2.267-2.95-4.509-4.457-6.812.417-.239.777-.445,1.147-.657,1.49,2.205,2.957,4.378,4.459,6.602Z"/>
    <path class="cls-1" d="M23.595,74.306c-.415-.29-.774-.542-1.141-.798,1.487-2.293,2.957-4.561,4.456-6.873.35.182.708.367,1.146.595-1.496,2.374-2.97,4.711-4.461,7.076Z"/>
    <path class="cls-1" d="M48.34,65.631c-.4.321-.755.606-1.141.917-.696-.913-1.365-1.791-2.063-2.707.371-.322.733-.637,1.146-.996.696.942,1.368,1.851,2.058,2.786Z"/>
    <path class="cls-1" d="M50.335,81.383c-.407-.249-.756-.463-1.141-.699.686-1.056,1.357-2.09,2.054-3.165.393.271.762.525,1.149.792-.698,1.04-1.367,2.037-2.062,3.071Z"/>
    <path class="cls-1" d="M48.456,61.083c.387-.288.752-.559,1.158-.862.686,1.012,1.349,1.99,2.05,3.024-.374.256-.721.493-1.139.779-.688-.978-1.372-1.95-2.069-2.941Z"/>
    <path class="cls-1" d="M22.42,83.827c.389-.25.744-.479,1.141-.735.688.999,1.364,1.98,2.064,2.996-.378.277-.731.536-1.142.838-.691-1.038-1.367-2.053-2.063-3.099Z"/>
    <path class="cls-1" d="M50.507,82.237c.393.258.746.49,1.148.755-.687,1.049-1.356,2.072-2.05,3.132-.387-.22-.753-.428-1.156-.657.689-1.081,1.365-2.141,2.058-3.23Z"/>
    <path class="cls-1" d="M28.026,89.388c-.393.321-.745.609-1.147.937-.692-.972-1.365-1.918-2.06-2.895.387-.288.749-.558,1.149-.856.684.936,1.353,1.85,2.058,2.814Z"/>
    <path class="cls-1" d="M52.905,78.687c.403.312.752.581,1.15.89-.683.968-1.355,1.919-2.054,2.91-.373-.25-.734-.493-1.147-.77.684-1.011,1.347-1.99,2.051-3.029Z"/>
    <path class="cls-1" d="M48.847,81.231c.403.241.766.457,1.15.686-.694,1.098-1.367,2.163-2.061,3.261-.386-.201-.743-.387-1.145-.597.696-1.134,1.37-2.233,2.055-3.35Z"/>
    <path class="cls-1" d="M49.598,69.888c-.693-.968-1.356-1.893-2.059-2.876.38-.298.745-.584,1.147-.899.695.999,1.363,1.958,2.055,2.951-.381.275-.736.531-1.142.824Z"/>
    <path class="cls-1" d="M48.675,80.388c-.384-.209-.74-.402-1.144-.622.696-1.119,1.367-2.198,2.055-3.305.399.248.757.471,1.148.714-.69,1.077-1.368,2.134-2.059,3.212Z"/>
    <path class="cls-1" d="M50.869,64.534c.386-.257.736-.491,1.139-.759.682,1.079,1.353,2.14,2.055,3.25-.388.222-.748.428-1.144.654-.693-1.063-1.361-2.089-2.05-3.145Z"/>
    <path class="cls-1" d="M46.277,84.329c-.411-.197-.764-.365-1.143-.547.69-1.157,1.361-2.282,2.058-3.45.379.202.734.392,1.14.609-.69,1.138-1.359,2.241-2.054,3.388Z"/>
    <g>
      <path class="cls-2" d="M43.986,73.902c-.917-.459-1.835-.459-2.752,0-2.523,1.147-3.669,4.357-6.192,5.733-1.605.688-3.211.229-4.128-1.147-.414-.828-.412-1.657-.346-2.485-.358,1.11-.511,2.311-.416,3.62.223,3.074,2.606,5.327,5.683,5.334.347-.028.699-.027,1.04-.089,3.239-.583,5.633-2.428,7.437-5.09.591-.873,1.04-1.786,1.33-2.745-.087-1.19-.61-2.347-1.656-3.132Z"/>
      <path class="cls-3" d="M45.963,73.485c-.365-3.355-3.351-5.64-6.669-5.078-2.119.359-3.931,1.32-5.478,2.766-1.515,1.417-2.659,3.001-3.248,4.83-.067.828-.069,1.657.346,2.485.917,1.376,2.523,1.835,4.128,1.147,2.523-1.376,3.669-4.587,6.192-5.733.917-.459,1.835-.459,2.752,0,1.046.784,1.568,1.942,1.656,3.132.337-1.118.457-2.297.321-3.548Z"/>
    </g>
  </g>
  <g>
    <path class="cls-4" d="M130.449,47.346c-18.913-9.214-30.713,10.669-48.089,0V15.583c15.275,9.78,31.521-9.86,48.089,0v31.763Z"/>
    <path class="cls-1" d="M119.711,24.413c-1.492-2.107-2.964-4.187-4.464-6.305.358-.294.721-.592,1.145-.941,1.487,2.168,2.954,4.307,4.461,6.504-.408.265-.771.501-1.143.742Z"/>
    <path class="cls-1" d="M93.675,21.398c.37.214.725.418,1.145.661-1.479,2.254-2.944,4.487-4.452,6.786-.416-.324-.782-.609-1.146-.893,1.488-2.19,2.955-4.348,4.453-6.553Z"/>
    <path class="cls-1" d="M98.093,43.692c-.354.306-.722.624-1.15.994-1.491-2.08-2.961-4.131-4.459-6.221.417-.298.771-.551,1.148-.821,1.494,2.026,2.965,4.02,4.461,6.047Z"/>
    <path class="cls-1" d="M96.993,23.192c.374.177.728.344,1.144.541-1.491,2.451-2.966,4.874-4.457,7.325-.414-.258-.773-.481-1.145-.713,1.483-2.381,2.953-4.739,4.457-7.153Z"/>
    <path class="cls-1" d="M94.763,46.452c-.356.269-.708.534-1.15.867-1.483-2.267-2.95-4.509-4.457-6.812.417-.239.777-.445,1.147-.657,1.49,2.205,2.957,4.378,4.459,6.602Z"/>
    <path class="cls-1" d="M92.019,30.012c-.415-.29-.774-.542-1.141-.798,1.487-2.293,2.957-4.561,4.456-6.873.35.182.708.367,1.146.595-1.496,2.374-2.97,4.711-4.461,7.076Z"/>
    <path class="cls-1" d="M116.765,21.337c-.4.321-.755.606-1.141.917-.696-.913-1.365-1.791-2.063-2.707.371-.322.733-.637,1.146-.996.696.942,1.368,1.851,2.058,2.786Z"/>
    <path class="cls-1" d="M118.759,37.089c-.407-.249-.756-.463-1.141-.699.686-1.056,1.357-2.09,2.054-3.165.393.271.762.525,1.149.792-.698,1.04-1.367,2.037-2.062,3.071Z"/>
    <path class="cls-1" d="M116.88,16.788c.387-.288.752-.559,1.158-.862.686,1.012,1.349,1.99,2.05,3.024-.374.256-.721.493-1.139.779-.688-.978-1.372-1.95-2.069-2.941Z"/>
    <path class="cls-1" d="M90.844,39.533c.389-.25.744-.479,1.141-.735.688.999,1.364,1.98,2.064,2.996-.378.277-.731.536-1.142.838-.691-1.038-1.367-2.053-2.063-3.099Z"/>
    <path class="cls-1" d="M118.932,37.943c.393.258.746.49,1.148.755-.687,1.049-1.356,2.072-2.05,3.132-.387-.22-.753-.428-1.156-.657.689-1.081,1.365-2.141,2.058-3.23Z"/>
    <path class="cls-1" d="M96.451,45.093c-.393.321-.745.609-1.147.937-.692-.972-1.365-1.918-2.06-2.895.387-.288.749-.558,1.149-.856.684.936,1.353,1.85,2.058,2.814Z"/>
    <path class="cls-1" d="M121.329,34.392c.403.312.752.581,1.15.89-.683.968-1.355,1.919-2.054,2.91-.373-.25-.734-.493-1.147-.77.684-1.011,1.347-1.99,2.051-3.029Z"/>
    <path class="cls-1" d="M117.272,36.937c.403.241.766.457,1.15.686-.694,1.098-1.367,2.163-2.061,3.261-.386-.201-.743-.387-1.145-.597.696-1.134,1.37-2.233,2.055-3.35Z"/>
    <path class="cls-1" d="M118.023,25.594c-.693-.968-1.356-1.893-2.059-2.876.38-.298.745-.584,1.147-.899.695.999,1.363,1.958,2.055,2.951-.381.275-.736.531-1.142.824Z"/>
    <path class="cls-1" d="M117.1,36.094c-.384-.209-.74-.402-1.144-.622.696-1.119,1.367-2.198,2.055-3.305.399.248.757.471,1.148.714-.69,1.077-1.368,2.134-2.059,3.212Z"/>
    <path class="cls-1" d="M119.294,20.24c.386-.257.736-.491,1.139-.759.682,1.079,1.353,2.14,2.055,3.25-.388.222-.748.428-1.144.654-.693-1.063-1.361-2.089-2.05-3.145Z"/>
    <path class="cls-1" d="M114.702,40.034c-.411-.197-.764-.365-1.143-.547.69-1.157,1.361-2.282,2.058-3.45.379.202.734.392,1.14.609-.69,1.138-1.359,2.241-2.054,3.388Z"/>
    <g>
      <path class="cls-2" d="M112.411,29.607c-.917-.459-1.835-.459-2.752,0-2.523,1.147-3.669,4.357-6.192,5.733-1.605.688-3.211.229-4.128-1.147-.414-.828-.412-1.657-.346-2.485-.358,1.11-.511,2.311-.416,3.62.223,3.074,2.606,5.327,5.683,5.334.347-.028.699-.027,1.04-.089,3.239-.583,5.633-2.428,7.437-5.09.591-.873,1.04-1.786,1.33-2.745-.087-1.19-.61-2.347-1.656-3.132Z"/>
      <path class="cls-3" d="M114.388,29.191c-.365-3.355-3.351-5.64-6.669-5.078-2.119.359-3.931,1.32-5.478,2.766-1.515,1.417-2.659,3.001-3.248,4.83-.067.828-.069,1.657.346,2.485.917,1.376,2.523,1.835,4.128,1.147,2.523-1.376,3.669-4.587,6.192-5.733.917-.459,1.835-.459,2.752,0,1.046.784,1.568,1.942,1.656,3.132.337-1.118.457-2.297.321-3.548Z"/>
    </g>
  </g>
  <rect class="cls-6" x="72.768" y="80.874" width="54.831" height="36.536"/>
  <g>
    <path class="cls-3" d="M100.682,89.624c-4.21.008-8.068,2.614-9.455,6.688.856,3.162,3.337,6.022,6.993,5.271,2.095-.419,3.247-2.514,5.132-3.351,3.436-1.579,5.883,1.536,6.832,4.525.326-.987.504-2.034.513-3.106.004-5.519-4.497-10.037-10.015-10.026Z"/>
    <path class="cls-2" d="M103.352,98.232c-1.885.838-3.037,2.932-5.132,3.351-3.657.75-6.138-2.109-6.993-5.271-.348,1.022-.54,2.137-.543,3.326-.014,5.521,4.33,9.982,9.967,9.997,4.632.012,8.243-2.967,9.534-6.878-.949-2.989-3.396-6.103-6.832-4.525Z"/>
    <path class="cls-1" d="M118.521,93.662c-.367.254-.688.475-1.042.72-1.885-2.722-3.759-5.428-5.651-8.161.36-.248.689-.475,1.043-.719,1.888,2.727,3.757,5.425,5.65,8.161Z"/>
    <path class="cls-1" d="M89.876,86.747c.356.246.685.473,1.042.72-1.889,2.729-3.76,5.431-5.65,8.162-.355-.246-.683-.474-1.041-.722,1.888-2.727,3.758-5.428,5.649-8.16Z"/>
    <path class="cls-1" d="M90.915,111.844c-.352.244-.671.466-1.04.721-1.883-2.719-3.756-5.423-5.652-8.161.349-.242.676-.468,1.042-.722,1.888,2.727,3.761,5.432,5.651,8.161Z"/>
    <path class="cls-1" d="M87.15,114.351c-.356.247-.684.474-1.042.722-1.886-2.724-3.754-5.421-5.649-8.157.342-.24.667-.467,1.038-.726,1.886,2.724,3.759,5.428,5.653,8.162Z"/>
    <path class="cls-1" d="M86.113,84.238c.365.252.685.473,1.042.72-1.885,2.723-3.755,5.424-5.648,8.158-.351-.241-.679-.466-1.045-.717,1.884-2.722,3.754-5.422,5.65-8.162Z"/>
    <path class="cls-1" d="M87.995,85.492c.355.246.675.467,1.042.721-1.887,2.726-3.761,5.433-5.649,8.161-.355-.245-.675-.467-1.042-.72,1.88-2.716,3.748-5.414,5.649-8.162Z"/>
    <path class="cls-1" d="M114.746,115.074c-.364-.252-.683-.473-1.041-.721.867-1.253,1.723-2.49,2.608-3.77.348.24.675.464,1.043.718-.871,1.26-1.727,2.497-2.61,3.773Z"/>
    <path class="cls-1" d="M82.339,105.657c.361-.249.681-.469,1.042-.719.87,1.255,1.727,2.492,2.611,3.767-.347.242-.672.469-1.038.724-.872-1.258-1.73-2.495-2.615-3.772Z"/>
    <path class="cls-1" d="M120.403,92.407c-.366.253-.686.474-1.042.719-.839-1.211-1.667-2.406-2.516-3.63.346-.24.674-.467,1.041-.722.839,1.211,1.665,2.403,2.517,3.633Z"/>
    <path class="cls-1" d="M114.122,91.282c.844,1.219,1.671,2.414,2.515,3.634-.359.248-.687.474-1.042.718-.847-1.223-1.673-2.417-2.514-3.631.358-.249.687-.477,1.04-.722Z"/>
    <path class="cls-1" d="M116.226,88.601c-.841-1.215-1.668-2.41-2.513-3.632.356-.248.683-.476,1.038-.723.839,1.211,1.66,2.396,2.514,3.628-.347.243-.681.476-1.039.727Z"/>
    <path class="cls-1" d="M112.46,91.108c-.85-1.229-1.67-2.415-2.514-3.635.354-.244.681-.47,1.041-.719.842,1.216,1.668,2.409,2.513,3.628-.357.249-.685.478-1.04.725Z"/>
    <path class="cls-1" d="M110.983,112.564c-.356-.246-.685-.473-1.041-.72.843-1.219,1.671-2.415,2.514-3.632.351.243.679.47,1.041.72-.843,1.218-1.669,2.411-2.514,3.631Z"/>
    <path class="cls-1" d="M85.48,110.192c.361-.251.69-.481,1.04-.725.84,1.212,1.663,2.401,2.514,3.63-.35.242-.678.469-1.04.72-.836-1.207-1.659-2.394-2.513-3.626Z"/>
    <path class="cls-1" d="M112.864,113.819c-.365-.253-.684-.474-1.04-.721.837-1.21,1.663-2.404,2.512-3.632.354.245.689.476,1.043.721-.846,1.222-1.668,2.409-2.515,3.632Z"/>
    <path class="cls-1" d="M113.079,107.314c.84-1.214,1.667-2.408,2.513-3.63.356.246.684.472,1.042.719-.844,1.219-1.671,2.414-2.515,3.634-.356-.247-.685-.476-1.04-.723Z"/>
    <path class="cls-1" d="M116.001,109.291c-.361-.25-.681-.471-1.041-.721.834-1.206,1.659-2.398,2.513-3.633.346.239.671.464,1.042.719-.837,1.211-1.663,2.404-2.514,3.634Z"/>
    <path class="cls-1" d="M117.883,110.546c-.352-.243-.681-.471-1.042-.72.839-1.213,1.665-2.406,2.512-3.63.354.243.682.467,1.044.716-.843,1.218-1.67,2.413-2.515,3.634Z"/>
  </g>
  <path class="cls-5" d="M34.017,127.873c-3.286-8.212-5.094-17.176-5.094-26.561"/>
  <path class="cls-5" d="M103.125,172.79c-.888.033-1.779.049-2.675.049-13.504,0-26.133-3.742-36.909-10.246"/>
  <path class="cls-5" d="M171.074,112.721c-1.834,11.441-6.381,21.975-12.96,30.922"/>
  <path class="cls-5" d="M136.811,39.701c12.552,7.424,22.64,18.575,28.738,31.93"/>
  <path class="cls-5" d="M47.48,53.244c7.637-8.411,17.251-14.996,28.107-19.021"/>
</svg>