<svg xmlns="http://www.w3.org/2000/svg" version="1.1" viewBox="-30.0 -30.0 120.0 135.0">
  <!-- SVG thứ hai (kích thước gốc) -->
  <g transform="scale(1.5) translate(0, 10)">
  <path fill="#B89146" d="M52.4,11.4c-0.3-0.2-0.6-0.2-0.9-0.1c-2.5,1.1-5.1,0.3-6.6-1.7c-0.7-0.9-1.1-2.1-1.1-3.2c0-0.3-0.1-0.5-0.3-0.7  s-0.4-0.3-0.7-0.3l-10.2,0c-0.6,0-1,0.4-1,1v35.5c0,0.1,0,0.1,0,0.2c-0.2,1.8-1.6,3.1-3.4,3.1c-1.9,0-3.5-1.6-3.5-3.5  c0-1.8,1.3-3.2,3.1-3.4c0.5-0.1,0.9-0.5,0.9-1l0-11.6c0-0.6-0.4-1-1-1c0,0-0.1,0-0.2,0c-9.2,0.4-16.3,7.8-16.3,17  c0,9.4,7.6,17,17,17c8.8,0,16.2-6.8,16.9-15.5c0.1-0.1,0.1-0.3,0.1-0.4V23.5c2.2,0.5,4.5,0.7,6.9,0.3c0.5-0.1,0.8-0.5,0.8-1V12.2  C52.9,11.9,52.7,11.6,52.4,11.4z M50.9,22c-2.3,0.2-4.4,0-6.5-0.7c-0.3-0.1-0.6,0-0.9,0.1c-0.3,0.2-0.4,0.5-0.4,0.8v20.2  c0,0.1,0,0.2-0.1,0.3c-0.5,7.8-7.1,14-14.9,14c-8.3,0-15-6.7-15-15c0-7.8,5.8-14.2,13.5-14.9l0,9.7c-2.3,0.7-4,2.8-4,5.2  c0,3,2.5,5.5,5.5,5.5c2.7,0,5-2,5.4-4.6c0.1-0.1,0.1-0.3,0.1-0.4V7.4h8.3c0.2,1.3,0.7,2.4,1.4,3.4c1.7,2.3,4.7,3.5,7.6,2.8V22z"/>
   </g>

  <!-- SVG đầu tiên (nhỏ lại và đặt ở góc phải trên) -->
  <g transform="scale(0.5) translate(-10, -20)">
    <path fill="#B89146" d="M48.964,10.343c-21.367,0-38.75,17.384-38.75,38.751c0,7.399,2.093,14.577,6.058,20.794l-6.277,16.49  c-0.156,0.409-0.05,0.87,0.268,1.17c0.205,0.194,0.472,0.296,0.742,0.296c0.149,0,0.3-0.03,0.442-0.094l15.361-6.875  c6.524,4.562,14.172,6.969,22.157,6.969c21.368,0,38.75-17.384,38.75-38.75C87.715,27.727,70.332,10.343,48.964,10.343z   M48.964,82.127c-6.983,0-13.664-2.16-19.319-6.248c-0.796-0.574-1.735-0.878-2.715-0.878c-0.658,0-1.295,0.136-1.893,0.404  l-5.721,2.561l2.494-6.556c0.531-1.389,0.359-2.957-0.458-4.196c-3.544-5.389-5.418-11.654-5.418-18.12  c0-8.809,3.439-17.1,9.686-23.347c6.246-6.247,14.538-9.687,23.346-9.687c18.214,0,33.033,14.819,33.033,33.033  S67.179,82.127,48.964,82.127z"/>
    <path fill="#B89146" d="M28.077,38.327h4.438v8.896l8.342-8.896h5.83l-8.861,8.881l9.315,12.711h-5.801l-6.653-9.425l-2.173,2.204v7.222h-4.438  V38.327z"/>
    <path fill="#B89146" d="M66.296,58c-1.631,1.68-3.99,2.52-7.076,2.52s-5.443-0.84-7.075-2.52c-2.188-2.061-3.281-5.029-3.281-8.907  c0-3.955,1.094-6.924,3.281-8.906c1.632-1.68,3.989-2.52,7.075-2.52s5.445,0.84,7.076,2.52c2.178,1.982,3.266,4.951,3.266,8.906  C69.562,52.971,68.474,55.939,66.296,58z M63.476,54.719c1.049-1.318,1.574-3.193,1.574-5.625c0-2.422-0.525-4.294-1.574-5.617  c-1.051-1.323-2.469-1.985-4.256-1.985s-3.213,0.659-4.277,1.978s-1.596,3.193-1.596,5.625c0,2.432,0.531,4.307,1.596,5.625  s2.49,1.978,4.277,1.978S62.425,56.037,63.476,54.719z"/>
  </g>
</svg>
